<svg width="37" height="38" viewBox="0 0 37 38" fill="none" xmlns="http://www.w3.org/2000/svg">
<path d="M26.9792 10.2917H26.9946M10.7917 3.16666H26.2083C30.4655 3.16666 33.9167 6.71107 33.9167 11.0833V26.9167C33.9167 31.2889 30.4655 34.8333 26.2083 34.8333H10.7917C6.53448 34.8333 3.08334 31.2889 3.08334 26.9167V11.0833C3.08334 6.71107 6.53448 3.16666 10.7917 3.16666ZM24.6667 18.0025C24.8569 19.3202 24.6378 20.666 24.0404 21.8484C23.443 23.0309 22.4978 23.9897 21.3392 24.5886C20.1806 25.1876 18.8676 25.396 17.587 25.1844C16.3064 24.9727 15.1234 24.3518 14.2062 23.4098C13.289 22.4679 12.6844 21.2529 12.4784 19.9377C12.2723 18.6224 12.4753 17.274 13.0584 16.0841C13.6416 14.8942 14.5752 13.9234 15.7265 13.3099C16.8778 12.6963 18.1882 12.4713 19.4713 12.6667C20.78 12.866 21.9917 13.4923 22.9272 14.4531C23.8628 15.414 24.4726 16.6584 24.6667 18.0025Z" stroke="#B9B09F" stroke-width="4" stroke-linecap="round" stroke-linejoin="round"/>
</svg>
