<svg width="48" height="43" viewBox="0 0 48 43" fill="none" xmlns="http://www.w3.org/2000/svg">
<path d="M24 39.4167C23.5333 39.4167 23.1333 39.2972 22.8 39.0583C22.4667 38.8195 22.2167 38.5059 22.05 38.1177C21.4167 36.4455 20.6167 34.8778 19.65 33.4146C18.7167 31.9514 17.4 30.2344 15.7 28.2636C14 26.2927 12.6167 24.4115 11.55 22.6198C10.5167 20.8281 10 18.6632 10 16.125C10 12.6313 11.35 9.67501 14.05 7.25626C16.7833 4.80765 20.1 3.58334 24 3.58334C27.9 3.58334 31.2 4.80765 33.9 7.25626C36.6333 9.67501 38 12.6313 38 16.125C38 18.8424 37.4167 21.1118 36.25 22.9333C35.1167 24.725 33.8 26.5017 32.3 28.2636C30.5 30.4136 29.1333 32.2052 28.2 33.6386C27.3 35.042 26.55 36.5351 25.95 38.1177C25.7833 38.5358 25.5167 38.8642 25.15 39.1031C24.8167 39.3122 24.4333 39.4167 24 39.4167ZM24 33.0115C24.5667 31.9962 25.2 30.9958 25.9 30.0104C26.6333 29.025 27.7 27.7111 29.1 26.0688C30.5333 24.3965 31.7 22.8587 32.6 21.4552C33.5333 20.0219 34 18.2451 34 16.125C34 13.6465 33.0167 11.5413 31.05 9.80938C29.1167 8.04758 26.7667 7.16668 24 7.16668C21.2333 7.16668 18.8667 8.04758 16.9 9.80938C14.9667 11.5413 14 13.6465 14 16.125C14 18.2451 14.45 20.0219 15.35 21.4552C16.2833 22.8587 17.4667 24.3965 18.9 26.0688C20.3 27.7111 21.35 29.025 22.05 30.0104C22.7833 30.9958 23.4333 31.9962 24 33.0115ZM24 20.6042C25.4 20.6042 26.5833 20.1712 27.55 19.3052C28.5167 18.4392 29 17.3792 29 16.125C29 14.8708 28.5167 13.8108 27.55 12.9448C26.5833 12.0788 25.4 11.6458 24 11.6458C22.6 11.6458 21.4167 12.0788 20.45 12.9448C19.4833 13.8108 19 14.8708 19 16.125C19 17.3792 19.4833 18.4392 20.45 19.3052C21.4167 20.1712 22.6 20.6042 24 20.6042Z" fill="#B9B09F"/>
</svg>
